<svg width="265" height="65" viewBox="0 0 265 65" fill="none" xmlns="http://www.w3.org/2000/svg">
<g clip-path="url(#clip0_2_8725)">
<path d="M33.1397 49.5391C33.014 48.4311 32.8427 47.3917 32.7856 46.3637C32.6485 43.908 32.1574 41.6464 30.4897 39.6475C28.7079 37.523 28.9135 35.844 30.741 33.7309C31.3807 32.9884 32.066 32.2689 32.5343 31.4236C33.4366 29.756 32.8769 28.5795 31.1179 27.917C27.2915 26.4893 21.432 29.1164 21.3292 34.599C21.2378 39.1906 22.7684 43.314 24.8129 47.2661C26.1036 49.7675 27.7598 52.0976 29.2219 54.5077C29.576 55.0902 29.8158 55.7298 29.8387 56.4951C29.6445 56.3466 29.4161 56.221 29.2561 56.0382C24.1276 50.2472 19.593 44.1021 17.9483 36.3237C17.1373 32.5087 17.0688 28.8194 20.6781 26.2837C24.4703 23.6223 28.4794 23.7594 32.4886 25.8725C32.9455 26.1123 33.3681 26.4093 33.8935 26.7291C34.1791 26.4893 34.4875 26.2494 34.773 25.9867C39.1134 22.0918 44.0706 21.0866 49.5532 22.9941C53.5053 24.3648 55.3556 27.4601 55.6983 31.4693C56.0867 36.061 55.0016 40.4242 52.7857 44.3991C49.2334 50.7727 44.8702 56.5751 39.3076 61.3838C38.805 61.8178 38.2682 62.229 37.7313 62.6288C35.3555 64.3764 32.9683 64.6619 30.2613 63.1771C25.6468 60.6414 21.9117 57.2033 18.8163 53C14.396 46.9919 10.2726 40.8012 9.47306 33.1369C9.21035 30.567 9.14182 27.8257 9.75862 25.3471C11.2663 19.3162 16.7718 16.3008 23.271 17.6943C25.6239 18.1968 27.8741 19.1334 30.1928 19.7959C30.821 19.9787 31.4835 20.0244 32.1459 20.0929C32.8084 20.1614 32.9797 19.556 32.6485 19.1563C32.3173 18.7565 31.9632 18.2996 31.5634 17.9341C29.3932 15.8781 28.9135 13.6737 30.1585 10.9438C30.6725 9.82442 31.2664 8.73932 31.8832 7.66565C33.0254 5.71247 33.5052 3.69075 32.8313 1.45202C32.7056 1.04083 32.7627 0.561099 32.7285 -0.0556946C35.1043 2.57139 37.1374 5.12994 37.8456 8.53373C38.3938 11.1837 38.0854 13.548 36.2236 15.5926C35.2527 16.6548 35.0015 17.6714 35.7553 19.0649C36.829 21.0638 35.881 22.5372 33.5509 22.4801C31.6548 22.423 29.7816 21.9204 27.8969 21.8291C25.7952 21.7263 23.6707 21.7148 21.5805 21.9433C17.1259 22.4458 13.6992 26.5235 13.6079 31.1838C13.448 39.1906 16.5319 46.0211 21.3064 52.2004C23.5337 55.0788 25.681 58.0714 28.8678 60.0702C32.8769 62.5831 35.07 62.4575 38.5195 59.2136C44.973 53.1485 49.5304 46.0096 50.5127 37.0204C50.7411 34.9759 50.5926 32.7486 49.9987 30.784C48.5595 25.9639 40.8724 24.2505 37.2516 27.7685C35.287 29.676 35.0586 32.2688 36.6577 34.4847C39.2162 38.037 39.2733 39.1792 37.0117 42.8571C36.5549 43.5996 35.9609 44.2621 35.5383 45.0273C34.7388 46.4323 34.0192 47.8714 33.1511 49.5391H33.1397Z" fill="#D9441F"/>
</g>
<path d="M80.8 46C80.5067 46 80.2667 45.9067 80.08 45.72C79.8933 45.5333 79.8 45.2933 79.8 45V19C79.8 18.7067 79.8933 18.4667 80.08 18.28C80.2667 18.0933 80.5067 18 80.8 18H85.96C86.2533 18 86.4933 18.0933 86.68 18.28C86.8667 18.4667 86.96 18.7067 86.96 19V28.64H96.84V19C96.84 18.7067 96.9333 18.4667 97.12 18.28C97.3067 18.0933 97.5467 18 97.84 18H103C103.293 18 103.533 18.0933 103.72 18.28C103.907 18.4667 104 18.7067 104 19V45C104 45.2933 103.907 45.5333 103.72 45.72C103.533 45.9067 103.293 46 103 46H97.84C97.5467 46 97.3067 45.9067 97.12 45.72C96.9333 45.5333 96.84 45.2933 96.84 45V35.04H86.96V45C86.96 45.2933 86.8667 45.5333 86.68 45.72C86.4933 45.9067 86.2533 46 85.96 46H80.8ZM111.005 46C110.711 46 110.471 45.9067 110.285 45.72C110.098 45.5333 110.005 45.2933 110.005 45V19C110.005 18.7067 110.098 18.4667 110.285 18.28C110.471 18.0933 110.711 18 111.005 18H116.365C116.658 18 116.898 18.0933 117.085 18.28C117.271 18.4667 117.365 18.7067 117.365 19V45C117.365 45.2933 117.271 45.5333 117.085 45.72C116.898 45.9067 116.658 46 116.365 46H111.005ZM133.813 46.4C131.147 46.4 128.933 46.0267 127.173 45.28C125.413 44.5067 124.08 43.5067 123.173 42.28C122.267 41.0533 121.787 39.7467 121.733 38.36C121.733 38.1467 121.813 37.96 121.973 37.8C122.16 37.6133 122.373 37.52 122.613 37.52H127.653C128.027 37.52 128.307 37.5867 128.493 37.72C128.707 37.8533 128.893 38.0267 129.053 38.24C129.267 38.64 129.56 39.0267 129.933 39.4C130.333 39.7733 130.84 40.08 131.453 40.32C132.093 40.5333 132.88 40.64 133.813 40.64C135.36 40.64 136.52 40.4 137.293 39.92C138.093 39.44 138.493 38.7867 138.493 37.96C138.493 37.3733 138.28 36.8933 137.853 36.52C137.427 36.12 136.733 35.7733 135.773 35.48C134.84 35.16 133.587 34.84 132.013 34.52C129.987 34.0933 128.253 33.5467 126.813 32.88C125.4 32.1867 124.32 31.2933 123.573 30.2C122.827 29.08 122.453 27.6933 122.453 26.04C122.453 24.4133 122.907 22.96 123.813 21.68C124.747 20.4 126.04 19.4 127.693 18.68C129.347 17.96 131.307 17.6 133.573 17.6C135.413 17.6 137.027 17.84 138.413 18.32C139.827 18.8 141.013 19.44 141.973 20.24C142.933 21.04 143.653 21.8933 144.133 22.8C144.64 23.68 144.907 24.5467 144.933 25.4C144.933 25.6133 144.853 25.8133 144.693 26C144.533 26.16 144.333 26.24 144.093 26.24H138.813C138.52 26.24 138.267 26.1867 138.053 26.08C137.84 25.9733 137.653 25.8 137.493 25.56C137.333 24.9733 136.907 24.4667 136.213 24.04C135.547 23.5867 134.667 23.36 133.573 23.36C132.4 23.36 131.48 23.5733 130.813 24C130.173 24.4 129.853 25.0267 129.853 25.88C129.853 26.4133 130.027 26.88 130.373 27.28C130.747 27.68 131.347 28.0267 132.173 28.32C133.027 28.6133 134.187 28.92 135.653 29.24C138.08 29.6933 140.04 30.2667 141.533 30.96C143.027 31.6267 144.12 32.5067 144.813 33.6C145.507 34.6667 145.853 36.0133 145.853 37.64C145.853 39.4533 145.333 41.0267 144.293 42.36C143.28 43.6667 141.867 44.6667 140.053 45.36C138.24 46.0533 136.16 46.4 133.813 46.4ZM151.258 46C150.964 46 150.724 45.9067 150.538 45.72C150.351 45.5333 150.258 45.2933 150.258 45V19C150.258 18.7067 150.351 18.4667 150.538 18.28C150.724 18.0933 150.964 18 151.258 18H156.618C156.911 18 157.151 18.0933 157.338 18.28C157.524 18.4667 157.618 18.7067 157.618 19V45C157.618 45.2933 157.524 45.5333 157.338 45.72C157.151 45.9067 156.911 46 156.618 46H151.258ZM164.627 46C164.333 46 164.093 45.9067 163.907 45.72C163.72 45.5333 163.627 45.2933 163.627 45V19C163.627 18.7067 163.72 18.4667 163.907 18.28C164.093 18.0933 164.333 18 164.627 18H175.507C178.947 18 181.653 18.8 183.627 20.4C185.627 21.9733 186.627 24.2133 186.627 27.12C186.627 29.0133 186.16 30.6133 185.227 31.92C184.32 33.2267 183.12 34.2133 181.627 34.88L187.147 44.72C187.227 44.88 187.267 45.0267 187.267 45.16C187.267 45.3733 187.173 45.5733 186.987 45.76C186.827 45.92 186.627 46 186.387 46H181.107C180.6 46 180.227 45.88 179.987 45.64C179.747 45.3733 179.573 45.1333 179.467 44.92L174.907 36.12H170.787V45C170.787 45.2933 170.693 45.5333 170.507 45.72C170.32 45.9067 170.08 46 169.787 46H164.627ZM170.787 30.48H175.427C176.68 30.48 177.613 30.1733 178.227 29.56C178.867 28.9467 179.187 28.1067 179.187 27.04C179.187 26 178.88 25.16 178.267 24.52C177.68 23.88 176.733 23.56 175.427 23.56H170.787V30.48ZM191.616 36.88C191.323 36.88 191.083 36.7867 190.896 36.6C190.709 36.4133 190.616 36.1733 190.616 35.88V32.12C190.616 31.8267 190.709 31.5867 190.896 31.4C191.083 31.2133 191.323 31.12 191.616 31.12H204.136C204.429 31.12 204.669 31.2133 204.856 31.4C205.043 31.5867 205.136 31.8267 205.136 32.12V35.88C205.136 36.1733 205.043 36.4133 204.856 36.6C204.669 36.7867 204.429 36.88 204.136 36.88H191.616ZM211.481 46C211.188 46 210.948 45.9067 210.761 45.72C210.575 45.5333 210.481 45.2933 210.481 45V19C210.481 18.7067 210.575 18.4667 210.761 18.28C210.948 18.0933 211.188 18 211.481 18H223.681C225.975 18 227.855 18.32 229.321 18.96C230.788 19.6 231.868 20.52 232.561 21.72C233.281 22.8933 233.641 24.2933 233.641 25.92C233.641 26.88 233.455 27.7333 233.081 28.48C232.735 29.2 232.295 29.8 231.761 30.28C231.255 30.76 230.775 31.1067 230.321 31.32C231.335 31.8 232.228 32.5867 233.001 33.68C233.801 34.7733 234.201 36.0533 234.201 37.52C234.201 39.28 233.801 40.8 233.001 42.08C232.228 43.3333 231.081 44.3067 229.561 45C228.068 45.6667 226.228 46 224.041 46H211.481ZM217.641 40.8H223.241C224.388 40.8 225.255 40.4667 225.841 39.8C226.428 39.1333 226.721 38.3733 226.721 37.52C226.721 36.5867 226.415 35.8 225.801 35.16C225.215 34.52 224.361 34.2 223.241 34.2H217.641V40.8ZM217.641 29.12H222.881C223.975 29.12 224.788 28.84 225.321 28.28C225.881 27.72 226.161 27 226.161 26.12C226.161 25.2667 225.881 24.5733 225.321 24.04C224.788 23.48 223.975 23.2 222.881 23.2H217.641V29.12ZM237.055 46C236.841 46 236.641 45.92 236.455 45.76C236.295 45.5733 236.215 45.3733 236.215 45.16C236.215 45.0267 236.228 44.9067 236.255 44.8L245.655 19.12C245.735 18.8267 245.895 18.5733 246.135 18.36C246.401 18.12 246.761 18 247.215 18H253.135C253.588 18 253.935 18.12 254.175 18.36C254.441 18.5733 254.615 18.8267 254.695 19.12L264.055 44.8C264.108 44.9067 264.135 45.0267 264.135 45.16C264.135 45.3733 264.041 45.5733 263.855 45.76C263.695 45.92 263.495 46 263.255 46H258.335C257.935 46 257.628 45.9067 257.415 45.72C257.228 45.5067 257.108 45.32 257.055 45.16L255.495 41.08H244.815L243.295 45.16C243.241 45.32 243.121 45.5067 242.935 45.72C242.748 45.9067 242.428 46 241.975 46H237.055ZM246.455 35.32H253.895L250.135 24.76L246.455 35.32Z" fill="#1E1E1E"/>
<defs>
<clipPath id="clip0_2_8725">
<rect width="65" height="65" fill="white"/>
</clipPath>
</defs>
</svg>
