<svg width="414" height="130" viewBox="0 0 414 130" fill="none" xmlns="http://www.w3.org/2000/svg">
<path d="M0 45.4136L0.194293 46.1224L7.00514 44.2427V44.248L7.12068 44.2112L13.7057 42.3946L13.732 42.4471C14.2413 43.3449 15.3783 43.6599 16.2762 43.1506C17.1742 42.6413 17.4892 41.5046 16.9799 40.6068C16.4705 39.7089 15.3336 39.3939 14.4357 39.9032C13.7793 40.276 13.4353 40.9848 13.4983 41.691L8.47025 43.0797L5.37464 33.8415L26.608 17.8013L32.1402 50.3727L11.5343 81.5974L22.7116 82.3744L33.0881 108.356L20.598 122.787L28.3173 123.302L28.4355 121.548L24.2397 121.267L35.1203 108.698L24.6624 82.5083L36.7193 83.3458L47.7784 103.725L34.7763 123.995L42.2174 124.491L42.3355 122.738L37.8641 122.438L49.8212 103.799L38.7988 83.4875L50.194 84.2777L33.9729 50.2414L55.3113 25.5956L51.4832 39.9242L76.508 52.3075L73.4097 57.0802L74.0267 57.4792L82.1793 44.9227C82.2056 44.9332 82.2344 44.9437 82.2607 44.9515C83.2427 45.2666 84.2929 44.7284 84.6106 43.7466C84.9257 42.7647 84.3875 41.7146 83.4055 41.397C82.4235 41.0819 81.3732 41.6201 81.0555 42.602C80.8271 43.3108 81.045 44.0564 81.5544 44.5341L77.4715 50.8216L53.5548 38.9844L57.8582 22.8733L57.7033 22.8312L58.2179 22.2353L43.3936 19.2373L44.6382 15.8638C48.6764 16.8299 52.8432 14.5433 54.1482 10.5267C55.5214 6.3027 53.2082 1.76891 48.9836 0.395907C44.7589 -0.977096 40.2245 1.33572 38.8513 5.55974C37.5963 9.4241 39.4263 13.551 42.9814 15.2758L41.6476 18.8881L26.3743 15.8008L26.3639 15.7851L26.3507 15.7956L26.2693 15.7798L26.2825 15.8507L3.31353 33.2036L6.78197 43.5497L0.00788455 45.4188L0 45.4136ZM59.6278 78.0637C59.6278 78.447 59.7223 78.8146 59.9088 79.1716C60.1162 81.6551 60.3604 84.4063 60.7043 87.2731C60.7043 87.4333 60.7253 87.5908 60.7621 87.7483C60.8566 88.5122 60.959 89.2814 61.0693 90.0585C61.0693 90.2607 61.1008 90.4602 61.1586 90.6597C61.8333 95.2198 62.8206 99.9189 64.3749 104.201C66.0238 108.742 68.1217 112.397 70.7841 115.374C73.7983 118.745 77.5634 121.186 81.9692 122.63C86.2516 124.032 91.004 124.662 97.3764 124.67C97.421 124.67 97.4683 124.67 97.5129 124.67C102.163 124.67 108.168 124.349 113.632 121.958C117.381 120.317 120.684 117.736 123.449 114.289C123.654 114.035 123.856 113.772 124.055 113.507L124.089 113.463C126.263 110.559 128.096 107.078 129.548 103.095C131.092 98.8531 132.037 94.5372 132.602 90.5862C132.644 90.4287 132.665 90.2685 132.67 90.1058C132.786 89.2552 132.885 88.423 132.969 87.6144C132.982 87.5356 132.99 87.4569 132.993 87.3755C133.324 84.0782 133.405 81.1694 133.395 78.959C133.515 78.6702 133.576 78.3709 133.576 78.0637C133.576 76.759 132.494 75.6249 130.273 74.6011C128.393 73.7347 125.725 72.9629 122.338 72.304C115.456 70.9625 106.317 70.2248 96.6044 70.2248C86.8923 70.2248 77.7525 70.9625 70.8707 72.304C67.4863 72.9629 64.8161 73.7373 62.9361 74.6011C60.7122 75.6249 59.6331 76.7564 59.6331 78.0637H59.6278ZM72.1626 115.101C76.9858 117.078 86.0258 118.353 96.5231 118.353C103.893 118.353 110.827 117.776 116.05 116.731C117.969 116.345 119.563 115.92 120.828 115.458C118.565 117.805 115.992 119.619 113.151 120.86C107.892 123.163 102.047 123.473 97.5156 123.473C97.4709 123.473 97.4263 123.473 97.3816 123.473C91.1432 123.465 86.5037 122.853 82.3473 121.491C78.3485 120.181 74.9667 118.065 72.1652 115.103L72.1626 115.101ZM70.3614 112.974C72.1704 113.825 74.5571 114.46 76.6681 114.901C82.0375 116.027 89.1136 116.647 96.5913 116.647C104.069 116.647 111.463 116.048 116.89 114.959C119.337 114.468 121.275 113.914 122.7 113.3C122.637 113.379 122.577 113.46 122.514 113.539C122.469 113.594 122.425 113.649 122.38 113.704C121.238 114.394 119.174 115.145 115.866 115.807C110.704 116.841 103.835 117.411 96.5257 117.411C89.216 117.411 82.7858 116.818 77.7341 115.741C74.4547 115.043 71.9367 114.145 70.5504 113.216C70.4874 113.134 70.4244 113.053 70.364 112.972L70.3614 112.974ZM63.7081 97.6901C64.2962 98.3201 65.0497 98.819 65.9293 99.1051C67.9931 99.7798 70.1723 99.1156 71.5298 97.5903C72.0418 99.6354 73.7537 101.26 75.9697 101.552C78.3774 101.87 80.6171 100.517 81.5255 98.3884C82.0506 100.67 84.054 102.405 86.5037 102.489C88.9534 102.573 91.0723 100.974 91.7497 98.7349C92.3404 101.014 94.4094 102.696 96.8723 102.696C99.1776 102.696 101.136 101.224 101.864 99.1655C102.704 101.064 104.623 102.366 106.826 102.316C109.276 102.258 111.297 100.546 111.846 98.2703C112.734 100.407 114.958 101.785 117.368 101.494C119.597 101.224 121.333 99.6065 121.858 97.5535C123.247 99.1523 125.499 99.8664 127.65 99.1891C128.553 98.9056 129.33 98.4068 129.945 97.7715C129.519 99.4044 129.012 101.05 128.419 102.686C127.377 105.547 126.132 108.141 124.706 110.433H124.672V110.491C124.483 110.787 124.294 111.079 124.103 111.365C123.139 112.197 120.873 113.166 116.696 114.003C111.332 115.08 104.19 115.67 96.5913 115.67C88.9928 115.67 82.174 115.059 76.8677 113.946C71.5639 112.833 69.6105 111.609 68.8937 110.853C67.5887 108.774 66.4597 106.424 65.504 103.788C64.7924 101.83 64.2043 99.7798 63.7081 97.6901ZM62.2246 89.6437C62.6683 89.9692 63.2066 90.2817 63.842 90.5836C65.6747 91.4552 68.2845 92.2374 71.5928 92.9042C78.3459 94.2667 87.3124 95.015 96.8381 95.015C106.364 95.015 115.341 94.2694 122.094 92.9148C126.676 91.9959 129.826 90.8986 131.52 89.6358C131.491 89.8616 131.46 90.09 131.425 90.3184C131.066 91.4814 128.338 93.1038 121.561 94.4558C114.908 95.7842 106.091 96.514 96.7357 96.514C87.3806 96.514 78.6268 95.7842 72.0444 94.4558C65.4751 93.1327 62.7628 91.5418 62.3322 90.3814C62.2955 90.1347 62.2613 89.8879 62.2246 89.6437ZM61.2347 80.5709C61.6995 80.899 62.264 81.2193 62.9309 81.5265C64.8108 82.3928 67.4785 83.1646 70.8655 83.8236C77.7473 85.1624 86.887 85.9027 96.5992 85.9027C106.311 85.9027 115.451 85.1651 122.333 83.8236C125.717 83.1646 128.388 82.3902 130.268 81.5265C131.045 81.1694 131.683 80.7967 132.182 80.4108C132.155 82.3587 132.05 84.7004 131.79 87.2836H131.775C131.775 88.4702 129.167 90.2606 121.852 91.7281C115.175 93.067 106.293 93.8047 96.8355 93.8047C87.378 93.8047 78.5087 93.0644 71.8317 91.7176C64.522 90.2449 61.92 88.4492 61.92 87.2626H61.9147C61.6312 84.9314 61.4185 82.6763 61.2347 80.5761V80.5709ZM61.2111 78.0637C61.2111 77.4836 62.1012 76.7275 63.5925 76.0397C65.3569 75.2259 67.9064 74.4935 71.1674 73.8581C77.952 72.5377 86.9842 71.8078 96.5992 71.8078C106.214 71.8078 115.246 72.535 122.031 73.8581C125.292 74.4935 127.839 75.2259 129.606 76.0397C131.097 76.7275 131.987 77.4836 131.987 78.0637C131.987 78.6439 131.097 79.4 129.606 80.0879C127.841 80.9017 125.292 81.6341 122.031 82.2694C115.246 83.5899 106.214 84.3197 96.5992 84.3197C86.9842 84.3197 77.952 83.5925 71.1674 82.2694C67.9064 81.6341 65.3596 80.899 63.5925 80.0879C62.1012 79.4 61.2111 78.6439 61.2111 78.0637ZM78.6898 78.0637C78.6898 79.9907 86.7085 81.5527 96.5992 81.5527C106.49 81.5527 114.509 79.9907 114.509 78.0637C114.509 76.1368 106.49 74.5748 96.5992 74.5748C86.7085 74.5748 78.6898 76.1368 78.6898 78.0637Z" fill="#051E3C"/>
<path d="M205.268 41.1449L202.517 19.505L199.975 19.8279L202.496 39.6511L190.484 45.5369L180.619 41.8484L182.738 35.7552C183.213 35.8287 183.696 35.8786 184.193 35.8786C189.386 35.8786 193.595 31.6704 193.595 26.4776C193.595 21.2849 189.386 17.0766 184.193 17.0766C178.999 17.0766 174.79 21.2849 174.79 26.4776C174.79 30.2737 177.043 33.5343 180.283 35.0202L178.222 40.9532L168.969 37.4931L157.907 25.8423L167.176 8.14029L164.907 6.95367L154.791 26.2807L167.134 39.2809L172.325 69.865L164.668 98.3726L169.04 97.6454L160.215 114.502L171.697 126.594L173.556 124.83L163.337 114.066L172.212 97.1177L183.169 95.2932L174.507 111.84L185.988 123.932L187.847 122.168L177.629 111.404L186.338 94.7655L192.02 93.8177L173.871 68.4238L190.405 48.4404L205.279 41.1527L205.268 41.1449Z" fill="#051E3C"/>
<path d="M270.801 38.4803L268.05 16.8404L265.508 17.1633L268.029 36.9865L256.016 42.8723L246.152 39.1839L248.271 33.0907C248.746 33.1642 249.229 33.2141 249.725 33.2141C254.919 33.2141 259.128 29.0058 259.128 23.8131C259.128 18.6203 254.919 14.4121 249.725 14.4121C244.532 14.4121 240.323 18.6203 240.323 23.8131C240.323 27.6092 242.576 30.8697 245.816 32.3556L243.755 38.2887L234.502 34.8286L223.44 23.1777L232.709 5.47572L230.44 4.28911L220.324 23.6162L232.667 36.6164L237.858 67.2005L231.53 90.7647L214.873 87.6118L225.205 113.124L227.578 112.163L219.008 91.0036L230.863 93.2482L230.201 95.7107L248.696 92.6286L240.034 109.175L251.516 121.267L253.375 119.503L243.156 108.74L251.868 92.101L257.55 91.1532L239.401 65.7592L255.935 45.7759L270.809 38.4882L270.801 38.4803Z" fill="#051E3C"/>
<path d="M413.992 37.3068L411.24 15.6669L408.699 15.9898L411.219 35.813L399.207 41.6988L389.343 38.0104L391.462 31.9172C391.937 31.9907 392.42 32.0406 392.916 32.0406C398.11 32.0406 402.319 27.8323 402.319 22.6396C402.319 17.4468 398.11 13.2386 392.916 13.2386C387.723 13.2386 383.514 17.4468 383.514 22.6396C383.514 26.4357 385.767 29.6962 389.007 31.1821L386.946 37.1152L377.693 33.6551L366.631 22.0043L375.9 4.30225L373.631 3.11563L363.515 22.4427L375.858 35.4429L381.048 66.027L374.721 89.5912L358.064 86.4383L368.396 111.95L370.769 110.99L362.199 89.8301L374.054 92.0747L373.392 94.5371L391.887 91.4551L383.225 108.002L394.707 120.094L396.566 118.33L386.347 107.566L395.059 90.9274L400.741 89.9797L382.592 64.5857L399.126 44.6024L414 37.3147L413.992 37.3068Z" fill="#051E3C"/>
<path d="M337.075 43.4551L322.51 44.3346L312.822 41.8511L314.523 35.8052C318.028 36.4379 321.744 35.0517 323.915 31.9382C326.885 27.68 325.84 21.8178 321.581 18.8487C319.606 17.4704 317.288 16.969 315.072 17.2368C315.096 15.512 314.292 13.8056 312.769 12.745C310.333 11.0465 306.98 11.645 305.281 14.0813C303.582 16.5175 304.181 19.8699 306.617 21.5684C307.016 21.8467 307.439 22.0568 307.875 22.2116C305.712 26.3438 306.898 31.5339 310.826 34.272C311.233 34.5555 311.659 34.7918 312.092 35.0018L310.343 41.2132L298.32 38.1311L298.473 39.9636L288.569 50.2361V73.8659H291.131V51.2678L298.754 43.3606L300.883 69.1852L301.059 69.004L299.733 107.805L304.317 105.393L306.783 120.572L294.227 126.712L295.353 129.012L309.616 122.037L306.707 104.132L317.13 98.6457L329.723 102.707L327.559 117.046L330.093 117.427L332.579 100.935L320.299 96.9733L323.988 95.0333L302.684 67.3422L322.82 46.8706L339.477 45.8651L341.276 19.7518L338.721 19.5759L337.077 43.4446L337.075 43.4551Z" fill="#051E3C"/>
</svg>
