<svg width="65" height="65" viewBox="0 0 65 65" fill="none" xmlns="http://www.w3.org/2000/svg">
<g clip-path="url(#clip0_2_3)">
<path d="M33.1397 49.5391C33.014 48.4311 32.8427 47.3917 32.7856 46.3637C32.6485 43.908 32.1574 41.6464 30.4897 39.6475C28.7079 37.523 28.9135 35.844 30.741 33.7309C31.3807 32.9884 32.066 32.2689 32.5343 31.4236C33.4366 29.756 32.8769 28.5795 31.1179 27.917C27.2915 26.4893 21.432 29.1164 21.3292 34.599C21.2378 39.1906 22.7684 43.314 24.8129 47.2661C26.1036 49.7675 27.7598 52.0976 29.2219 54.5077C29.576 55.0902 29.8158 55.7298 29.8387 56.4951C29.6445 56.3466 29.4161 56.221 29.2561 56.0382C24.1276 50.2472 19.593 44.1021 17.9483 36.3237C17.1373 32.5087 17.0688 28.8194 20.6781 26.2837C24.4703 23.6223 28.4794 23.7594 32.4886 25.8725C32.9455 26.1123 33.3681 26.4093 33.8935 26.7291C34.1791 26.4893 34.4875 26.2494 34.773 25.9867C39.1134 22.0918 44.0706 21.0866 49.5532 22.9941C53.5053 24.3648 55.3556 27.4601 55.6983 31.4693C56.0867 36.061 55.0016 40.4242 52.7857 44.3991C49.2334 50.7727 44.8702 56.5751 39.3076 61.3838C38.805 61.8178 38.2682 62.229 37.7313 62.6288C35.3555 64.3764 32.9683 64.6619 30.2613 63.1771C25.6468 60.6414 21.9117 57.2033 18.8163 53C14.396 46.9919 10.2726 40.8012 9.47306 33.1369C9.21035 30.567 9.14182 27.8257 9.75862 25.3471C11.2663 19.3162 16.7718 16.3008 23.271 17.6943C25.6239 18.1968 27.8741 19.1334 30.1928 19.7959C30.821 19.9787 31.4835 20.0244 32.1459 20.0929C32.8084 20.1614 32.9797 19.556 32.6485 19.1563C32.3173 18.7565 31.9632 18.2996 31.5634 17.9341C29.3932 15.8781 28.9135 13.6737 30.1585 10.9438C30.6725 9.82442 31.2664 8.73932 31.8832 7.66565C33.0254 5.71247 33.5052 3.69075 32.8313 1.45202C32.7056 1.04083 32.7627 0.561099 32.7285 -0.0556946C35.1043 2.57139 37.1374 5.12994 37.8456 8.53373C38.3938 11.1837 38.0854 13.548 36.2236 15.5926C35.2527 16.6548 35.0015 17.6714 35.7553 19.0649C36.829 21.0638 35.881 22.5372 33.5509 22.4801C31.6548 22.423 29.7816 21.9204 27.8969 21.8291C25.7952 21.7263 23.6707 21.7148 21.5805 21.9433C17.1259 22.4458 13.6992 26.5235 13.6079 31.1838C13.448 39.1906 16.5319 46.0211 21.3064 52.2004C23.5337 55.0788 25.681 58.0714 28.8678 60.0702C32.8769 62.5831 35.07 62.4575 38.5195 59.2136C44.973 53.1485 49.5304 46.0096 50.5127 37.0204C50.7411 34.9759 50.5926 32.7486 49.9987 30.784C48.5595 25.9639 40.8724 24.2505 37.2516 27.7685C35.287 29.676 35.0586 32.2688 36.6577 34.4847C39.2162 38.037 39.2733 39.1792 37.0117 42.8571C36.5549 43.5996 35.9609 44.2621 35.5383 45.0273C34.7388 46.4323 34.0192 47.8714 33.1511 49.5391H33.1397Z" fill="#D9441F"/>
</g>
<defs>
<clipPath id="clip0_2_3">
<rect width="65" height="65" fill="white"/>
</clipPath>
</defs>
</svg>
